<?xml version="1.0" encoding="UTF-8" standalone="no"?>
<!-- Created with Inkscape (http://www.inkscape.org/) -->

<svg
   width="92.118195mm"
   height="72.928337mm"
   viewBox="0 0 92.118195 72.928337"
   version="1.1"
   id="svg1"
   xmlns="http://www.w3.org/2000/svg"
   xmlns:svg="http://www.w3.org/2000/svg">
  <defs
     id="defs1" />
  <g
     id="layer1"
     transform="translate(-55.265878,-117.69465)">
    <g
       id="g33"
       style="display:none">
      <path
         id="path21"
         style="color:#000000;display:inline;fill:#ff2ad4;stroke:#898989;stroke-width:6.25514;stroke-linecap:round;stroke-dasharray:none;stroke-opacity:1"
         d="m 95.548532,111.64672 v 0.0116 c -0.984109,-0.006 -1.972695,0.009 -2.968746,0.0702 -9.174624,0.5616 -17.521863,3.9369 -24.165349,9.21838 -1.124389,-2.69514 -3.793368,-4.60949 -6.876984,-4.60949 -4.085921,0 -7.445689,3.35976 -7.445689,7.44568 0,3.33268 2.235269,6.18211 5.276549,7.1195 -4.134363,6.39264 -6.489371,13.95304 -6.40174,22.01942 a 2.2803399,2.2803399 0 0 0 2.306581,2.25588 2.2803399,2.2803399 0 0 0 2.254048,-2.30475 c -0.09373,-8.62776 2.958713,-16.61305 8.153667,-22.91799 0.996009,-0.67336 1.8232,-1.58046 2.400653,-2.6401 6.311138,-6.30356 14.990647,-10.43668 24.776202,-11.03568 1.034216,-0.0633 2.058871,-0.0764 3.077478,-0.0599 0.406225,0.007 0.811486,0.0187 1.214376,0.0379 0.212839,0.01 0.425125,0.022 0.63712,0.0354 0.425922,0.0271 0.849966,0.0609 1.271796,0.10141 0.199903,0.0192 0.399582,0.0395 0.598636,0.0617 0.41857,0.0466 0.83441,0.10102 1.24858,0.16066 0.21034,0.0304 0.42052,0.0609 0.62979,0.0947 0.37893,0.0609 0.75515,0.12937 1.13008,0.20097 0.24921,0.0478 0.49833,0.0953 0.74585,0.14783 0.32473,0.0686 0.64673,0.14394 0.96821,0.22051 0.28956,0.0692 0.57916,0.13874 0.86619,0.21441 0.2693,0.0708 0.53584,0.14729 0.80266,0.22357 0.3285,0.0942 0.65676,0.18879 0.98164,0.29138 0.21936,0.0691 0.43606,0.14344 0.65361,0.21624 0.36042,0.12095 0.72076,0.2427 1.07632,0.37385 0.1736,0.0639 0.34445,0.13287 0.51678,0.19913 0.39771,0.15324 0.79453,0.30819 1.18567,0.47403 0.10176,0.0431 0.2017,0.0893 0.30298,0.13316 0.45572,0.19788 0.90868,0.40044 1.35488,0.61513 0.0207,0.01 0.041,0.0206 0.0617,0.0305 3.70652,1.79169 7.07356,4.15862 9.96913,6.98816 l -0.005,0.005 c 3.4668,3.38893 6.16957,7.35866 8.00889,11.66668 0.0213,0.0501 0.0418,0.10066 0.0629,0.15088 0.19125,0.45371 0.37287,0.91114 0.54488,1.37198 0.0702,0.18877 0.13875,0.37842 0.20586,0.5687 0.11474,0.32424 0.22528,0.65 0.33047,0.97737 0.11112,0.34723 0.21945,0.69571 0.32009,1.04761 0.0505,0.17584 0.0976,0.35238 0.14538,0.529 0.11242,0.41761 0.2202,0.83704 0.31764,1.2608 0.004,0.0157 0.007,0.0313 0.011,0.047 0.0231,0.10037 0.0444,0.20117 0.0666,0.30176 0.0972,0.44311 0.18523,0.88955 0.26572,1.33899 0.0153,0.0857 0.033,0.17066 0.0477,0.25656 0.003,0.0199 0.006,0.0399 0.01,0.0599 0.0737,0.43398 0.13521,0.87258 0.19303,1.31211 0.0122,0.0933 0.0252,0.18627 0.0367,0.27977 -0.65897,1.28758 -1.03357,2.74179 -1.03357,4.27903 0,1.54402 0.3777,3.00376 1.04212,4.29552 -1.91316,15.60977 -14.24835,28.69504 -31.09609,31.47115 a 2.2803399,2.2803399 0 0 0 -1.881429,2.62117 2.2803399,2.2803399 0 0 0 2.621169,1.87838 c 17.51847,-2.88664 30.81933,-15.91565 34.28413,-31.94579 1.33948,0.72939 2.87145,1.14413 4.49466,1.14413 5.07659,0 9.26104,-4.06177 9.45906,-9.09255 0.83259,0.44665 1.77944,0.70187 2.78121,0.70187 3.25915,0 5.9491,-2.68933 5.9491,-5.94849 0,-3.08034 -2.40302,-5.6478 -5.41826,-5.92039 2.87207,-2.61177 4.68035,-6.37508 4.68035,-10.54515 0,-7.85015 -6.40777,-14.25487 -14.25792,-14.25487 -7.28096,0 -13.3144,5.51082 -14.15163,12.57319 -0.0201,-0.0284 -0.0421,-0.0553 -0.0623,-0.0837 -0.31944,-0.44991 -0.64794,-0.89418 -0.98653,-1.33227 -0.032,-0.0413 -0.0644,-0.0822 -0.0965,-0.12339 -1.13229,-1.45353 -2.3668,-2.84154 -3.70422,-4.14892 l -0.007,0.007 c -1.44835,-1.41368 -3.00038,-2.72358 -4.6437,-3.91923 -0.088,-0.0641 -0.17968,-0.12347 -0.26817,-0.18692 -0.439,-0.31428 -0.88144,-0.62453 -1.33288,-0.92239 -0.21339,-0.14101 -0.43317,-0.27318 -0.64934,-0.41049 -0.32968,-0.20911 -0.65744,-0.42034 -0.99324,-0.62063 -0.28844,-0.17228 -0.58361,-0.33457 -0.87658,-0.50029 -0.27883,-0.15752 -0.55539,-0.3183 -0.83809,-0.46974 -0.32597,-0.17482 -0.65843,-0.33912 -0.98958,-0.50579 -0.25425,-0.12785 -0.50645,-0.25884 -0.76357,-0.38178 -0.37125,-0.17766 -0.74851,-0.34456 -1.1258,-0.5119 -0.2211,-0.098 -0.44035,-0.19942 -0.66338,-0.29382 -0.39173,-0.16585 -0.78911,-0.32125 -1.18689,-0.47585 -0.2275,-0.0884 -0.45362,-0.17922 -0.68294,-0.26389 -0.37577,-0.13872 -0.75601,-0.26788 -1.13679,-0.39644 -0.26424,-0.0893 -0.52767,-0.17961 -0.79411,-0.26389 -0.36188,-0.11438 -0.72736,-0.22047 -1.09343,-0.32559 -0.28523,-0.082 -0.57011,-0.1644 -0.85764,-0.24067 -0.35295,-0.0935 -0.70879,-0.17909 -1.06532,-0.26389 -0.31776,-0.0757 -0.6357,-0.15062 -0.95599,-0.2193 -0.3307,-0.0708 -0.66339,-0.1353 -0.99691,-0.19853 -0.34707,-0.0659 -0.69481,-0.12931 -1.04456,-0.18692 -0.31824,-0.0523 -0.63784,-0.10001 -0.95843,-0.14538 -0.37341,-0.053 -0.74782,-0.10139 -1.12397,-0.14477 -0.307345,-0.0354 -0.615527,-0.0676 -0.924831,-0.0965 -0.383413,-0.0359 -0.767959,-0.0664 -1.153902,-0.0922 -0.315618,-0.0212 -0.631808,-0.0399 -0.949265,-0.0544 -0.385747,-0.0174 -0.772659,-0.0282 -1.160621,-0.0354 -0.183985,-0.004 -0.365836,-0.0159 -0.550379,-0.0171 z m 0.260224,6.57767 c -18.89294,0 -34.271914,15.37898 -34.271914,34.27192 0,8.79424 3.334827,16.82429 8.802393,22.89905 l -2.083009,2.10438 a 5.9103498,5.9103498 0 0 0 -1.90464,-0.34146 5.9103498,5.9103498 0 0 0 -4.179457,1.73238 l -13.942111,13.9415 v 5.01999 h 11.697226 l 10.603799,-10.6038 a 5.9103498,5.9103498 0 0 0 1.338379,-6.2924 l 2.073846,-2.09461 c 5.938597,4.93396 13.56193,7.90627 21.865488,7.90627 18.892934,0 34.273134,-15.37837 34.273134,-34.2713 0,-18.89294 -15.3802,-34.27192 -34.273134,-34.27192 z m 0,5.91062 c 15.698744,0 28.363134,12.66254 28.363134,28.3613 0,15.69875 -12.66439,28.36129 -28.363134,28.36129 -15.69875,0 -28.3613,-12.66254 -28.3613,-28.36129 0,-15.69876 12.66255,-28.3613 28.3613,-28.3613 z m 17.580964,9.88238 a 1.8915058,1.8915058 0 0 0 -0.45081,0.0678 l -25.71936,7.13354 a 1.8915058,1.8915058 0 0 0 -1.288289,1.22599 l -8.858592,26.61548 a 1.8915058,1.8915058 0 0 0 2.41287,2.38477 l 26.026011,-8.99054 a 1.8915058,1.8915058 0 0 0 1.171,-1.17039 l 8.54889,-24.75849 a 1.8915058,1.8915058 0 0 0 -1.84172,-2.50816 z m 22.98335,8.94961 c 0.40006,0.271 0.81508,0.52068 1.24247,0.75073 -0.32799,0.13312 -0.64838,0.28186 -0.9572,0.44959 -0.0178,-0.0829 -0.0403,-0.16405 -0.0587,-0.24678 -0.0228,-0.10281 -0.0461,-0.20538 -0.0696,-0.30787 -0.0498,-0.21586 -0.1036,-0.43077 -0.15699,-0.64567 z m 11.73143,1.93335 c -0.13916,0.26686 -0.25833,0.5452 -0.35613,0.8332 -0.21205,-0.20712 -0.4335,-0.40452 -0.66399,-0.59131 0.34469,-0.0678 0.68468,-0.14956 1.02012,-0.24189 z m -51.725819,1.15756 c 3.425001,-1.4e-4 6.110859,2.64379 6.110979,5.88985 1.4e-4,3.24625 -2.685787,5.88938 -6.110979,5.88923 -3.425002,-1.1e-4 -6.109285,-2.64317 -6.109141,-5.88923 1.15e-4,-3.24588 2.684331,-5.88973 6.109141,-5.88985 z m -40.489787,10.85242 a 2.2803399,2.2803399 0 0 0 -0.445312,0.0367 2.2803399,2.2803399 0 0 0 -1.834392,2.65477 c 0.429161,2.34622 1.071442,4.6511 1.916246,6.88859 a 2.2803399,2.2803399 0 0 0 2.937593,1.32799 2.2803399,2.2803399 0 0 0 1.327995,-2.93942 c -0.748378,-1.9821 -1.315399,-4.02161 -1.695118,-6.09754 a 2.2803399,2.2803399 0 0 0 -2.207012,-1.87104 z m 32.599398,31.28301 a 2.2803399,2.2803399 0 0 0 -2.188687,1.88998 2.2803399,2.2803399 0 0 0 1.856383,2.63644 c 2.350239,0.40668 4.737096,0.59945 7.128656,0.57848 a 2.2803399,2.2803399 0 0 0 2.258934,-2.30109 2.2803399,2.2803399 0 0 0 -2.299251,-2.25832 c -2.118583,0.0186 -4.230647,-0.15328 -6.310112,-0.51312 a 2.2803399,2.2803399 0 0 0 -0.445923,-0.0324 z"
         transform="matrix(0.8459715,0,0,0.8459715,14.464657,23.245711)" />
    </g>
    <g
       id="g21"
       style="display:inline">
      <path
         id="path5"
         style="color:#000000;fill:#ffffff;fill-opacity:1;stroke-linecap:round;-inkscape-stroke:none"
         d="m 66.351586,177.15828 a 5.9103498,5.9103498 0 0 0 -4.179457,1.73238 l -13.942111,13.9415 v 5.01999 h 11.697226 l 10.603799,-10.6038 a 5.9103498,5.9103498 0 0 0 0,-8.35769 5.9103498,5.9103498 0 0 0 -4.179457,-1.73238 z"
         transform="matrix(0.8459715,0,0,0.8459715,14.464657,23.245711)" />
      <g
         id="g12"
         transform="matrix(0.84597149,0,0,0.84597149,14.464657,23.245711)"
         style="display:inline">
        <circle
           style="opacity:1;fill:none;fill-opacity:1;stroke:#ffffff;stroke-width:5.91036;stroke-dasharray:none;stroke-opacity:1"
           id="path2"
           cx="95.809448"
           cy="152.49593"
           r="31.316959" />
        <path
           style="opacity:1;fill:none;fill-opacity:1;stroke:#ffffff;stroke-width:4.99999;stroke-dasharray:none;stroke-opacity:1"
           d="M 75.643927,173.59073 57.29052,192.13001"
           id="path4" />
        <path
           id="path11"
           style="color:#000000;fill:#ffffff;fill-opacity:1;stroke-linecap:round;stroke-linejoin:round;stroke-miterlimit:2;-inkscape-stroke:none"
           d="m 94.669516,111.64978 c -0.693538,0.01 -1.390494,0.036 -2.089729,0.0788 -9.174606,0.5616 -17.521877,3.93692 -24.165349,9.21838 0.365472,0.87604 0.568702,1.83389 0.568704,2.8362 10e-7,1.2747 -0.327574,2.47855 -0.901619,3.53195 6.311124,-6.30354 14.990668,-10.43668 24.776202,-11.03567 20.055795,-1.22766 37.496195,12.82619 39.858775,31.92746 0.87222,-1.7006 2.24189,-3.1095 3.91618,-4.02553 -0.0883,-0.40639 -0.16625,-0.81676 -0.26572,-1.21865 -3.787,-2.56818 -6.28446,-6.90784 -6.28446,-11.80962 0,-0.56538 0.0368,-1.12216 0.10141,-1.67068 -7.80228,-11.02271 -20.98049,-18.03447 -35.514394,-17.83264 z m -30.137661,12.80104 c -0.710016,0.72554 -1.389507,1.47833 -2.043303,2.25221 1.033556,-0.32663 1.812755,-1.17552 2.043303,-2.25221 z m 1.149015,5.5044 c -1.187572,0.80287 -2.614506,1.27362 -4.143417,1.27362 -0.753249,0 -1.48175,-0.11432 -2.169139,-0.32619 -4.134355,6.39262 -6.489371,13.95306 -6.401741,22.01942 a 2.28034,2.28034 0 0 0 2.306582,2.25588 2.28034,2.28034 0 0 0 2.254048,-2.30475 c -0.09373,-8.62774 2.958722,-16.61307 8.153667,-22.91798 z m 71.70683,19.16368 c -0.79837,0.89003 -1.28463,2.06738 -1.28463,3.37435 0,1.31274 0.49032,2.49505 1.29501,3.38718 0.1903,-2.2183 0.18649,-4.47843 -0.0104,-6.76153 z m -4.66631,7.66987 c -1.91315,15.60976 -14.24839,28.69505 -31.09609,31.47115 a 2.28034,2.28034 0 0 0 -1.881428,2.62118 2.28034,2.28034 0 0 0 2.621168,1.87837 c 17.51851,-2.88665 30.81937,-15.91621 34.28413,-31.9464 -1.67849,-0.91405 -3.05249,-2.32255 -3.92778,-4.0243 z" />
        <path
           id="path12"
           style="color:#000000;fill:#8047eb;stroke-linejoin:round;stroke-miterlimit:2;-inkscape-stroke:none"
           d="m 95.548533,111.64673 -0.03115,4.56001 c 19.291267,0.12983 35.010207,14.0935 37.195457,32.0081 0.87509,-1.7101 2.25265,-3.12607 3.93756,-4.04324 -0.0871,-0.40382 -0.17949,-0.80573 -0.27855,-1.20521 -3.78984,-2.56775 -6.28935,-6.90933 -6.28935,-11.81329 0,-0.56287 0.0368,-1.11718 0.10079,-1.66335 -7.57319,-10.69732 -20.26621,-17.74632 -34.634754,-17.84302 z m 41.844657,37.46545 c -0.80183,0.89077 -1.29012,2.07094 -1.29012,3.38107 v 6.1e-4 h 1.43978 c 0,-1.13948 -0.053,-2.26653 -0.14966,-3.38168 z" />
        <path
           id="path14"
           style="color:#000000;fill:#ccaaff;stroke-linejoin:round;stroke-miterlimit:2;-inkscape-stroke:none"
           d="m 125.33617,123.78316 -3.18987,3.26195 c 5.902,5.76942 9.58942,13.22211 10.57081,21.16118 0.87569,-1.70701 2.25264,-3.11969 3.93573,-4.0353 -0.0869,-0.40285 -0.17988,-0.80434 -0.27916,-1.20399 -3.7907,-2.56761 -6.29118,-6.90928 -6.29118,-11.8139 0,-0.56792 0.0375,-1.12712 0.10263,-1.67801 -1.42727,-2.02142 -3.04561,-3.9291 -4.84896,-5.69193 z m 12.05763,25.32841 c -0.80217,0.89084 -1.29073,2.07124 -1.29073,3.38168 v 6.1e-4 h 1.43978 c 0,-1.13345 -0.0522,-2.26132 -0.14905,-3.38229 z" />
        <g
           id="g20">
          <path
             id="path6"
             style="opacity:1;fill:#ffffff;fill-opacity:1;stroke:#ffffff;stroke-width:3.2;stroke-linecap:round;stroke-linejoin:round;stroke-miterlimit:2;stroke-dasharray:none;stroke-opacity:1;paint-order:normal"
             d="m 110.43512,138.21999 -21.756997,6.03435 -7.494448,22.51739 22.018815,-7.60591 z m -14.436328,6.98613 c 3.738333,-1.5e-4 6.768968,2.94673 6.769098,6.58203 1.6e-4,3.6355 -3.030561,6.58269 -6.769098,6.58254 -3.738335,-1.3e-4 -6.768741,-2.94724 -6.76858,-6.58254 1.29e-4,-3.6351 3.03045,-6.5819 6.76858,-6.58203 z"
             transform="matrix(1.1820729,0,0,1.1820729,-17.09828,-27.478126)" />
          <path
             id="path7"
             style="display:inline;opacity:1;fill:#9955ff;fill-opacity:1;stroke:none;stroke-width:3;stroke-linecap:round;stroke-linejoin:round;stroke-miterlimit:2;stroke-dasharray:none;stroke-opacity:1;paint-order:normal"
             d="m 110.43512,138.21999 -21.756997,6.03435 2.694594,2.74806 c 1.25117,-1.14881 2.905311,-1.7911 4.626075,-1.79628 1.869166,-7e-5 3.561408,0.73661 4.786378,1.92772 1.22496,1.19112 1.98265,2.83666 1.98272,4.65431 -0.005,1.81439 -0.7805,3.54619 -2.14251,4.78627 l 2.57711,2.5914 z"
             transform="matrix(1.1820729,0,0,1.1820729,-17.09828,-27.478126)" />
          <path
             id="path13"
             style="display:inline;opacity:1;fill:#ccaaff;fill-opacity:1;stroke:none;stroke-width:3;stroke-linecap:round;stroke-linejoin:round;stroke-miterlimit:2;stroke-dasharray:none;stroke-opacity:1;paint-order:normal"
             d="m 110.43512,138.21999 -9.64995,8.91385 c 1.22496,1.19112 1.98265,2.83666 1.98272,4.65431 -0.005,1.81439 -0.7805,3.54619 -2.14251,4.78627 l 2.57711,2.5914 z"
             transform="matrix(1.1820729,0,0,1.1820729,-17.09828,-27.478126)" />
        </g>
        <path
           style="display:inline;opacity:1;fill:none;fill-opacity:1;stroke:#ffffff;stroke-width:4.56068;stroke-linecap:round;stroke-linejoin:round;stroke-miterlimit:2;stroke-dasharray:none;stroke-opacity:1;paint-order:normal"
           id="path16"
           d="m 57.658383,165.68474 a 40.008507,38.567532 0 0 1 -1.804989,-6.49369" />
        <path
           style="display:inline;opacity:1;fill:none;fill-opacity:1;stroke:#ffffff;stroke-width:4.56068;stroke-linecap:round;stroke-linejoin:round;stroke-miterlimit:2;stroke-dasharray:none;stroke-opacity:1;paint-order:normal"
           id="path17"
           d="m -146.42167,155.31863 a 40.008507,38.567532 0 0 1 -1.80499,-6.49369"
           transform="rotate(-69.817275)" />
      </g>
      <g
         id="g19"
         transform="matrix(1.4141753,0,0,1.4141753,-59.05316,-54.343457)">
        <g
           id="path18">
          <path
             style="color:#000000;fill:#9955ff;stroke-linejoin:round;stroke-miterlimit:2;-inkscape-stroke:none;paint-order:markers stroke fill"
             d="m 145.6676,133.32266 a 7.3368816,7.3368816 0 0 1 -7.33688,7.33688 7.3368816,7.3368816 0 0 1 -7.33688,-7.33688 7.3368816,7.3368816 0 0 1 7.33688,-7.33688 7.3368816,7.3368816 0 0 1 7.33688,7.33688 z"
             id="path10" />
        </g>
        <g
           id="circle18">
          <path
             style="color:#000000;fill:#9955ff;stroke-linejoin:round;stroke-miterlimit:2;-inkscape-stroke:none;paint-order:markers stroke fill"
             d="m 145.97712,143.17284 a 2.2356195,2.2356195 0 0 1 -2.23562,2.23562 2.2356195,2.2356195 0 0 1 -2.23562,-2.23562 2.2356195,2.2356195 0 0 1 2.23562,-2.23562 2.2356195,2.2356195 0 0 1 2.23562,2.23562 z"
             id="path19" />
        </g>
        <g
           id="circle19">
          <path
             style="color:#000000;fill:#9955ff;stroke-linejoin:round;stroke-miterlimit:2;-inkscape-stroke:none;paint-order:markers stroke fill"
             d="m 140.76023,146.08841 a 4.3393931,4.3393931 0 0 1 -4.33939,4.33939 4.3393931,4.3393931 0 0 1 -4.3394,-4.33939 4.3393931,4.3393931 0 0 1 4.3394,-4.33939 4.3393931,4.3393931 0 0 1 4.33939,4.33939 z"
             id="path23" />
        </g>
      </g>
      <g
         id="circle20">
        <path
           style="color:#000000;display:inline;fill:#ccaaff;stroke-linejoin:round;stroke-miterlimit:2;-inkscape-stroke:none;paint-order:markers stroke fill"
           d="m 70.969795,127.96246 a 4.4463267,4.4463267 0 0 1 -4.446327,4.44633 4.4463267,4.4463267 0 0 1 -4.446327,-4.44633 4.4463267,4.4463267 0 0 1 4.446327,-4.44632 4.4463267,4.4463267 0 0 1 4.446327,4.44632 z"
           id="path8" />
      </g>
    </g>
  </g>
</svg>